# xmcd CD database file
#
# Track frame offsets:
#	150
#	17282
#	39817
#	55865
#	68972
#	94437
#	109835
#	125242
#	148460
#	162417
#	180900
#	192487
#	222555
#	243447
#	260155
#	281200
#	301135
#	326417
#
# Disc length: 4689 seconds
#
# Revision: 2
# Processed by: cddbd v1.5.2PL0 Copyright (c) Steve Scherf et al.
# Submitted via: CDex 1.51
#
DISCID=16124f12
DTITLE=Leonard Cohen - The Essential Leonard Cohen - Disc 1
DYEAR=2002
DGENRE=Rock
TTITLE0=Suzanne
TTITLE1=The Stranger Song
TTITLE2=Sisters Of Mercy
TTITLE3=Hey, That's No Way To Say Goodbye
TTITLE4=So Long, Marianne
TTITLE5=Bird On A Wire
TTITLE6=The Partisan
TTITLE7=Famous Blue Raincoat
TTITLE8=Chelsea Hotel #2
TTITLE9=Take This Longing
TTITLE10=Who By Fire
TTITLE11=The Guests
TTITLE12=Hallelujah
TTITLE13=If It Be Your Will
TTITLE14=Night Comes On
TTITLE15=I'm Your Man
TTITLE16=Everybody Knows
TTITLE17=Tower Of Song
EXTD=YEAR: 2002
EXTT0=
EXTT1=
EXTT2=
EXTT3=
EXTT4=
EXTT5=
EXTT6=
EXTT7=
EXTT8=
EXTT9=
EXTT10=
EXTT11=
EXTT12=
EXTT13=
EXTT14=
EXTT15=
EXTT16=
EXTT17=
PLAYORDER=
